<svg width="40" height="40" viewBox="0 0 40 40" fill="none" xmlns="http://www.w3.org/2000/svg">
<path fill-rule="evenodd" clip-rule="evenodd" d="M9.75248 9.57046V16.3467C10.2593 16.2181 10.757 16.0483 11.241 15.8382C12.4662 15.3063 13.5796 14.5267 14.5173 13.5439C15.4551 12.5612 16.199 11.3944 16.7065 10.1103C17.0237 9.30778 17.2446 8.46925 17.3658 7.61389C14.7735 7.87691 12.2087 8.5291 9.75248 9.57046ZM5 6.29582V16.6438V21.6244V21.7801C5 30.4619 11.7157 37.5 20 37.5C28.2843 37.5 35 30.4619 35 21.7801V21.6244V16.6438V6.29582L32.8035 5.29379C24.6378 1.56874 15.3621 1.56874 7.19653 5.29379L5 6.29582ZM9.75335 21.9218C9.81451 26.8774 13.0784 31.0235 17.4753 32.191C17.4731 30.8069 17.2119 29.4368 16.7065 28.158C16.199 26.8738 15.4551 25.7071 14.5173 24.7243C13.5796 23.7415 12.4662 22.962 11.241 22.43C10.7573 22.2201 10.2599 22.0504 9.75335 21.9218ZM19.8514 23.7632C19.2832 22.8411 18.622 21.9824 17.8779 21.2025C17.1336 20.4226 16.3143 19.7297 15.4344 19.1341C16.3143 18.5386 17.1336 17.8456 17.8779 17.0658C18.622 16.2858 19.2832 15.4271 19.8514 14.5051C20.4198 15.4271 21.081 16.2858 21.8251 17.0658C22.5693 17.8456 23.3887 18.5386 24.2685 19.1341C23.3887 19.7297 22.5693 20.4226 21.8251 21.2025C21.081 21.9824 20.4198 22.8411 19.8514 23.7632ZM22.2277 32.265C26.7949 31.2039 30.2157 26.9492 30.2473 21.8512C29.6379 21.9856 29.0401 22.1791 28.462 22.43C27.2367 22.962 26.1234 23.7415 25.1856 24.7243C24.2478 25.7071 23.504 26.8738 22.9964 28.158C22.4889 29.442 22.2277 30.8183 22.2277 32.2082V32.265ZM28.462 15.8382C29.0402 16.0892 29.638 16.2827 30.2475 16.4171V9.57047C27.6963 8.4888 25.0278 7.82702 22.3331 7.58512C22.4533 8.45044 22.6757 9.29879 22.9964 10.1103C23.504 11.3944 24.2478 12.5612 25.1856 13.5439C26.1234 14.5267 27.2367 15.3063 28.462 15.8382Z" fill="#CCCCCC"/>
</svg>
