<svg width="40" height="40" viewBox="0 0 40 40" fill="none" xmlns="http://www.w3.org/2000/svg">
<path fill-rule="evenodd" clip-rule="evenodd" d="M14.3431 2C12.3124 2 10.3649 2.8067 8.92893 4.24264L2 11.1715V14.3431C2 16.5839 2.9625 18.5998 4.49661 20C2.9625 21.4002 2 23.4161 2 25.6569V28.8285L8.92893 35.7574C10.3649 37.1933 12.3124 38 14.3431 38C16.5839 38 18.5998 37.0375 20 35.5034C21.4002 37.0375 23.4161 38 25.6569 38C27.6876 38 29.6351 37.1933 31.0711 35.7574L38 28.8285V25.6569C38 23.4161 37.0375 21.4002 35.5034 20C37.0375 18.5998 38 16.5839 38 14.3431V11.1715L31.0711 4.24264C29.6351 2.8067 27.6876 2 25.6569 2C23.4161 2 21.4002 2.96249 20 4.49661C18.5998 2.96249 16.5839 2 14.3431 2ZM25.1829 20C25.0966 19.9212 25.0119 19.8403 24.9289 19.7574L20 14.8284L15.0711 19.7574C14.9881 19.8403 14.9034 19.9212 14.8171 20C14.9034 20.0787 14.9881 20.1597 15.0711 20.2426L20 25.1716L24.9289 20.2426C25.0119 20.1597 25.0966 20.0787 25.1829 20ZM22 28.8285V30.3432C22 32.3628 23.6373 34 25.6569 34C26.6267 34 27.5568 33.6147 28.2426 32.9289L34 27.1716V25.6569C34 23.6373 32.3628 22 30.3432 22C29.3733 22 28.4432 22.3853 27.7574 23.0711L22 28.8285ZM18 28.8285L12.2426 23.0711C11.5568 22.3853 10.6267 22 9.65686 22C7.63723 22 6 23.6373 6 25.6569V27.1716L11.7573 32.9289C12.4431 33.6147 13.3733 34 14.3431 34C16.3627 34 18 32.3628 18 30.3432V28.8285ZM18 9.65686V11.1715L12.2426 16.9289C11.5568 17.6147 10.6267 18 9.65686 18C7.63723 18 6 16.3627 6 14.3431V12.8284L11.7573 7.07107C12.4431 6.38528 13.3733 6 14.3431 6C16.3627 6 18 7.63723 18 9.65686ZM27.7574 16.9289L22 11.1715V9.65686C22 7.63723 23.6373 6 25.6569 6C26.6267 6 27.5568 6.38528 28.2426 7.07107L34 12.8284V14.3431C34 16.3627 32.3628 18 30.3432 18C29.3733 18 28.4432 17.6147 27.7574 16.9289Z" fill="#CCCCCC"/>
</svg>
