<svg width="40" height="40" viewBox="0 0 40 40" fill="none" xmlns="http://www.w3.org/2000/svg">
<path d="M10.7568 6L18.7641 12.0913C19.2395 12.453 19.5135 12.9837 19.5135 13.5426V18.1333L11.5061 12.042C11.0307 11.6804 10.7568 11.1497 10.7568 10.5907V6Z" fill="#CCCCCC"/>
<path d="M10.7568 34L18.7641 27.9086C19.2395 27.547 19.5135 27.0163 19.5135 26.4574V21.8667L11.5061 27.958C11.0307 28.3196 10.7568 28.8503 10.7568 29.4092V34Z" fill="#CCCCCC"/>
<path d="M2 12.5333L9.37186 18.6104C9.72926 18.9051 10.1818 19.0667 10.6495 19.0667H16.5946L9.24089 12.991C8.88323 12.6955 8.42996 12.5333 7.96154 12.5333H2Z" fill="#CCCCCC"/>
<path d="M2 27.4667L9.31763 21.3931C9.67525 21.0963 10.1289 20.9333 10.5979 20.9333H16.5946L9.23168 27.0103C8.87469 27.305 8.42265 27.4667 7.95555 27.4667H2Z" fill="#CCCCCC"/>
<path d="M29.2432 6L22.1256 12.0913C21.703 12.453 21.4595 12.9837 21.4595 13.5426V18.1333L28.5771 12.042C28.9996 11.6804 29.2432 11.1497 29.2432 10.5907V6Z" fill="#CCCCCC"/>
<path d="M29.2432 34L22.1256 27.9086C21.703 27.547 21.4595 27.0163 21.4595 26.4574V21.8667L28.5771 27.958C28.9996 28.3196 29.2432 28.8503 29.2432 29.4092V34Z" fill="#CCCCCC"/>
<path d="M38 12.5333L30.6282 18.6104C30.2708 18.9051 29.8181 19.0667 29.3505 19.0667H23.4054L30.7591 12.991C31.1168 12.6955 31.5701 12.5333 32.0385 12.5333H38Z" fill="#CCCCCC"/>
<path d="M38 27.4667L30.6824 21.3931C30.3248 21.0963 29.871 20.9333 29.402 20.9333H23.4054L30.7683 27.0103C31.1253 27.305 31.5773 27.4667 32.0444 27.4667H38Z" fill="#CCCCCC"/>
</svg>
