<?xml version="1.0" encoding="UTF-8"?>
<svg xmlns="http://www.w3.org/2000/svg" version="1.1" viewBox="0 0 1453.55 1431.49">
  <!-- Generator: Adobe Illustrator 29.7.1, SVG Export Plug-In . SVG Version: 2.1.1 Build 8)  -->
  <defs>
    <style>
      .st0 {
        isolation: isolate;
      }

      .st1 {
        mix-blend-mode: screen;
      }
    </style>
  </defs>
  <g class="st0">
    <g id="Layer_1">
      <g id="tVoaJj" class="st1">
        <path d="M822.18,517.36l22.22-81.97-247.97,291.87c-4.39,3.27-22.51-2.71-29-1.45l.22-3.13L967.46,192.02l-159.34,529.76c43.31-2.18,86.5-7.33,129.59-12.26,43.45-4.97,87.03-10.47,130.4-16.16,60.26-7.91,126.12-21.99,185.78-26.69,1.48-.12,5.01-.99,4.67,1.31-21.04,9.4-41.19,20.96-61.4,32.06-171.53,94.19-339.13,195.63-505.37,298.72l65.23-235.28-200.76,17.73-361.27,451.53,326.72-449.78-268.91,2.04c85.1-8.97,169.75-22.77,254.83-32.25,86.51-9.65,173.47-16,259.97-25.76l45.89-171.93M1064.93,724.5l-266.26,35.59-45.69,153.97,132.19-76.89,179.76-112.68Z"/>
      </g>
    </g>
  </g>
</svg>